<?xml version="1.0" standalone="no"?>
<!DOCTYPE svg PUBLIC "-//W3C//DTD SVG 20010904//EN"
 "http://www.w3.org/TR/2001/REC-SVG-20010904/DTD/svg10.dtd">
<svg version="1.0" xmlns="http://www.w3.org/2000/svg"
 width="600.000000pt" height="600.000000pt" viewBox="0 0 600.000000 600.000000"
 preserveAspectRatio="xMidYMid meet">

<g transform="translate(0.000000,600.000000) scale(0.100000,-0.100000)"
fill="#000000" stroke="none">
<path d="M845 5733 c-16 -2 -37 -6 -45 -9 -8 -3 -15 -4 -15 -3 0 1 -11 -3 -23
-10 -13 -7 -36 -15 -50 -17 -15 -3 -35 -12 -44 -21 -10 -9 -18 -12 -18 -7 0 5
-4 5 -8 -1 -4 -5 -16 -17 -26 -25 -18 -13 -19 -13 -11 0 17 27 -140 -114 -185
-167 -54 -63 -110 -169 -144 -271 l-26 -75 0 -2091 c0 -1979 2 -2177 27 -2236
3 -8 8 -24 10 -35 2 -11 8 -24 13 -29 6 -6 10 -18 10 -28 0 -10 5 -18 10 -18
6 0 10 -6 10 -14 0 -7 7 -19 15 -26 9 -7 14 -15 12 -17 -3 -2 9 -18 24 -34 16
-17 27 -34 24 -38 -5 -9 119 -134 126 -126 3 3 17 -5 30 -17 14 -13 29 -24 34
-25 6 -2 18 -10 27 -18 10 -8 18 -11 18 -7 0 4 4 1 8 -6 5 -7 22 -15 37 -18
16 -3 35 -10 42 -16 8 -6 32 -16 56 -21 50 -13 4334 -16 4382 -4 17 4 47 17
68 27 21 11 46 20 56 20 10 0 22 7 25 16 3 8 10 13 15 10 5 -4 11 -1 13 4 2 6
11 12 21 14 10 1 36 20 58 40 21 21 39 35 39 30 0 -4 16 7 35 26 19 18 32 36
30 40 -2 3 12 23 31 44 19 20 34 41 34 46 0 4 5 10 11 12 5 2 11 11 13 20 1 9
10 26 20 36 9 11 18 29 19 41 1 11 4 21 7 21 3 0 12 28 19 62 7 35 17 76 22
92 5 17 9 882 9 2105 l0 2075 -22 91 c-12 49 -24 92 -27 95 -3 3 -8 14 -9 25
-2 11 -10 27 -18 36 -8 9 -11 19 -7 22 3 4 2 7 -4 7 -6 0 -14 11 -17 25 -3 13
-19 37 -34 52 -15 15 -26 30 -24 33 5 8 -120 130 -128 125 -4 -3 -19 7 -34 22
-14 14 -26 23 -26 19 0 -3 -9 2 -20 12 -12 9 -24 17 -28 17 -4 1 -22 9 -39 18
-18 10 -35 17 -38 16 -14 -2 -72 15 -84 25 -10 8 -572 11 -2145 12 -1172 1
-2144 -1 -2161 -3z m1700 -1686 c115 -40 194 -88 258 -157 79 -86 108 -155
115 -268 9 -152 -31 -271 -124 -372 -29 -31 -74 -68 -99 -81 -54 -29 -57 -50
-10 -68 62 -22 185 -111 227 -165 65 -82 89 -142 97 -252 9 -124 -2 -241 -29
-313 -42 -112 -144 -215 -289 -290 -166 -85 -243 -93 -896 -89 l-510 3 -3
1038 -2 1038 607 -4 c543 -3 613 -5 658 -20z m1785 -217 l0 -100 -417 2 -418
3 -3 84 c-2 46 -1 90 2 98 4 10 84 13 421 13 l415 0 0 -100z m-325 -290 c252
-36 466 -195 587 -435 50 -98 70 -182 75 -322 l6 -133 -547 0 c-468 0 -547 -2
-552 -14 -10 -25 14 -145 37 -193 60 -123 180 -193 334 -193 137 0 263 65 326
168 l21 32 169 0 c102 0 169 -4 169 -10 0 -24 -44 -123 -79 -176 -143 -223
-416 -336 -726 -302 -301 33 -540 239 -637 548 -20 66 -23 94 -23 240 1 152 3
171 28 245 96 288 342 503 622 544 83 12 110 12 190 1z"/>
<path d="M1735 3708 c-3 -7 -4 -117 -3 -243 l3 -230 220 -3 c309 -4 392 10
474 82 58 52 79 181 42 261 -23 50 -73 98 -126 122 -35 16 -77 18 -323 21
-229 3 -283 1 -287 -10z"/>
<path d="M1734 2905 c-3 -6 -3 -134 -2 -285 l3 -275 305 0 305 0 55 26 c118
56 170 134 170 256 0 117 -58 206 -165 255 -53 24 -29 23 -514 31 -97 1 -155
-2 -157 -8z"/>
<path d="M3870 3229 c-95 -12 -179 -67 -231 -152 -27 -43 -58 -129 -59 -159 0
-5 151 -8 336 -8 l336 0 -7 38 c-32 181 -197 304 -375 281z"/>
</g>
</svg>
