{
  "accessors": [
    {
      "bufferView": 2,
      "componentType": 5126,
      "count": 53648,
      "max": [
        1.0399069786071777,
        1.0399068593978882,
        0.3476697504520416
      ],
      "min": [
        -1.0399069786071777,
        -1.0399068593978882,
        -6.04730224609375
      ],
      "type": "VEC3"
    },
    {
      "bufferView": 2,
      "byteOffset": 643776,
      "componentType": 5126,
      "count": 53648,
      "max": [
        0.9999918937683105,
        0.9999803304672241,
        1.0
      ],
      "min": [
        -0.9999442100524902,
        -0.9999984502792358,
        -0.9996293783187866
      ],
      "type": "VEC3"
    },
    {
      "bufferView": 1,
      "componentType": 5126,
      "count": 53648,
      "max": [
        4.358535289764404,
        4.358341693878174
      ],
      "min": [
        -3.3585240840911865,
        -3.3583924770355225
      ],
      "type": "VEC2"
    },
    {
      "bufferView": 0,
      "componentType": 5125,
      "count": 251616,
      "type": "SCALAR"
    },
    {
      "bufferView": 2,
      "byteOffset": 1287552,
      "componentType": 5126,
      "count": 6808,
      "max": [
        0.40177297592163086,
        0.7145518064498901,
        0.40177297592163086
      ],
      "min": [
        -0.40177294611930847,
        -1.1629817485809326,
        -0.4017729163169861
      ],
      "type": "VEC3"
    },
    {
      "bufferView": 2,
      "byteOffset": 1369248,
      "componentType": 5126,
      "count": 6808,
      "max": [
        0.9999997615814209,
        0.30724069476127625,
        0.9999997615814209
      ],
      "min": [
        -0.9999997615814209,
        -0.9943290948867798,
        -0.9999997615814209
      ],
      "type": "VEC3"
    },
    {
      "bufferView": 1,
      "byteOffset": 429184,
      "componentType": 5126,
      "count": 6808,
      "max": [
        0.4904409646987915,
        0.6637285351753235
      ],
      "min": [
        0.48417648673057556,
        0.4437061548233032
      ],
      "type": "VEC2"
    },
    {
      "bufferView": 0,
      "byteOffset": 1006464,
      "componentType": 5125,
      "count": 38592,
      "type": "SCALAR"
    }
  ],
  "asset": {
    "extras": {
      "author": "assetfactory (https://sketchfab.com/assetfactory)",
      "license": "SKETCHFAB Standard (https://sketchfab.com/licenses)",
      "source": "https://sketchfab.com/3d-models/blue-jellyfish-c7bd4ef6fed94eb6a303dc4f9486028e",
      "title": "Blue jellyfish"
    },
    "generator": "Sketchfab-16.33.0",
    "version": "2.0"
  },
  "bufferViews": [
    {
      "buffer": 0,
      "byteLength": 1160832,
      "name": "floatBufferViews",
      "target": 34963
    },
    {
      "buffer": 0,
      "byteLength": 483648,
      "byteOffset": 1160832,
      "byteStride": 8,
      "name": "floatBufferViews",
      "target": 34962
    },
    {
      "buffer": 0,
      "byteLength": 1450944,
      "byteOffset": 1644480,
      "byteStride": 12,
      "name": "floatBufferViews",
      "target": 34962
    }
  ],
  "buffers": [
    {
      "byteLength": 3095424,
      "uri": "scene.bin"
    }
  ],
  "images": [
    {
      "uri": "textures/Material.001_baseColor.png"
    }
  ],
  "materials": [
    {
      "alphaMode": "BLEND",
      "doubleSided": true,
      "name": "Material.001",
      "pbrMetallicRoughness": {
        "baseColorFactor": [
          1.0,
          1.0,
          1.0,
          0.2754742880170259
        ],
        "baseColorTexture": {
          "index": 0
        },
        "metallicFactor": 0.0,
        "roughnessFactor": 0.3069570637904003
      }
    }
  ],
  "meshes": [
    {
      "name": "Cylinder.001_Material.001_0",
      "primitives": [
        {
          "attributes": {
            "NORMAL": 1,
            "POSITION": 0,
            "TEXCOORD_0": 2
          },
          "indices": 3,
          "material": 0,
          "mode": 4
        }
      ]
    },
    {
      "name": "BezierCurve.001_Material.001_0",
      "primitives": [
        {
          "attributes": {
            "NORMAL": 5,
            "POSITION": 4,
            "TEXCOORD_0": 6
          },
          "indices": 7,
          "material": 0,
          "mode": 4
        }
      ]
    }
  ],
  "nodes": [
    {
      "children": [
        1
      ],
      "matrix": [
        1.0,
        0.0,
        0.0,
        0.0,
        0.0,
        2.220446049250313e-16,
        -1.0,
        0.0,
        0.0,
        1.0,
        2.220446049250313e-16,
        0.0,
        0.0,
        0.0,
        0.0,
        1.0
      ],
      "name": "Sketchfab_model"
    },
    {
      "children": [
        2
      ],
      "matrix": [
        0.009999999776482582,
        0.0,
        0.0,
        0.0,
        0.0,
        0.0,
        0.009999999776482582,
        0.0,
        0.0,
        -0.009999999776482582,
        0.0,
        0.0,
        0.0,
        0.0,
        0.0,
        1.0
      ],
      "name": "Jellyfish2.fbx"
    },
    {
      "children": [
        3,
        5
      ],
      "name": "RootNode"
    },
    {
      "children": [
        4
      ],
      "matrix": [
        44.17613220214844,
        0.0,
        0.0,
        0.0,
        0.0,
        -7.197205471277385e-06,
        -44.176132202147855,
        0.0,
        0.0,
        33.81935501098588,
        -5.509872294983431e-06,
        0.0,
        0.0,
        101.05961608886719,
        0.0,
        1.0
      ],
      "name": "Cylinder.001"
    },
    {
      "mesh": 0,
      "name": "Cylinder.001_Material.001_0"
    },
    {
      "children": [
        6
      ],
      "matrix": [
        100.0,
        0.0,
        0.0,
        0.0,
        0.0,
        99.9999999999999,
        4.371138828673792e-06,
        0.0,
        0.0,
        -4.371138828673792e-06,
        99.9999999999999,
        0.0,
        0.0,
        0.0,
        0.0,
        1.0
      ],
      "name": "BezierCurve.001"
    },
    {
      "mesh": 1,
      "name": "BezierCurve.001_Material.001_0"
    }
  ],
  "samplers": [
    {
      "magFilter": 9729,
      "minFilter": 9987,
      "wrapS": 10497,
      "wrapT": 10497
    }
  ],
  "scene": 0,
  "scenes": [
    {
      "name": "Sketchfab_Scene",
      "nodes": [
        0
      ]
    }
  ],
  "textures": [
    {
      "sampler": 0,
      "source": 0
    }
  ]
}
